<?xml version="1.0" encoding="UTF-8"?>
<svg id="Layer_1" data-name="Layer 1" xmlns="http://www.w3.org/2000/svg" viewBox="0 0 531.92 391.15">
  <defs>
    <style>
      .cls-1 {
        fill: #171617;
      }
    </style>
  </defs>
  <path class="cls-1" d="M425.45,361.67c20.17-21.81,36-46.76,47.08-74.21,11.81-29.27,17.77-60.19,17.72-91.9.05-31.69-5.91-62.6-17.72-91.87-11.07-27.45-26.9-52.4-47.08-74.21L454.93,0c24.14,25.79,43.04,55.38,56.21,87.98,13.84,34.26,20.83,70.46,20.78,107.58.05,37.14-6.95,73.35-20.78,107.61-13.17,32.61-32.07,62.19-56.21,87.98l-29.48-29.48Z"/>
  <path class="cls-1" d="M76.99,391.15c-24.14-25.8-43.04-55.38-56.21-87.98C6.95,268.91-.05,232.71,0,195.59c-.05-37.14,6.95-73.34,20.78-107.61C33.95,55.38,52.85,25.8,76.99,0l29.48,29.48c-20.17,21.8-36,46.76-47.08,74.21-11.81,29.27-17.76,60.19-17.72,91.9-.05,31.69,5.91,62.6,17.72,91.87,11.07,27.45,26.9,52.41,47.08,74.21l-29.48,29.48Z"/>
  <path class="cls-1" d="M366.86,265.63c15.36-19.99,23.74-44.76,23.65-70.1.09-25.28-8.28-50.02-23.65-70l27.32-27.3c22.5,27.33,34.8,61.74,34.73,97.32.08,35.62-12.23,70.05-34.73,97.38l-27.32-27.3Z"/>
  <path class="cls-1" d="M144.51,292.93c-22.5-27.33-34.8-61.75-34.73-97.32-.08-35.62,12.23-70.05,34.73-97.38l27.32,27.3c-15.36,19.99-23.74,44.76-23.65,70.1-.09,25.27,8.28,50.01,23.65,70l-27.32,27.3Z"/>
  <polygon class="cls-1" points="273.6 173.07 314.64 56.86 237.97 170.45 237.86 170.45 201.74 219.27 262.8 219.27 217.28 334.29 300.41 221.88 300.44 221.89 336.56 173.07 273.6 173.07"/>
</svg>