<?xml version="1.0" encoding="UTF-8"?>
<svg id="Layer_1" xmlns="http://www.w3.org/2000/svg" version="1.1" viewBox="0 0 616.1 115.8">
  <!-- Generator: Adobe Illustrator 30.2.1, SVG Export Plug-In . SVG Version: 2.1.1 Build 1)  -->
  <defs>
    <style>
      .st0 {
        fill: #fff;
      }
    </style>
  </defs>
  <g id="Layer_11" data-name="Layer_1">
    <path class="st0" d="M125.9,107c6-6.4,10.7-13.8,13.9-22,3.5-8.7,5.3-17.8,5.2-27.2,0-9.4-1.8-18.5-5.2-27.2-3.3-8.1-8-15.5-13.9-22L134.6,0c7.1,7.6,12.7,16.4,16.6,26,4.1,10.1,6.2,20.9,6.1,31.8,0,11-2.1,21.7-6.1,31.8-3.9,9.7-9.5,18.4-16.6,26l-8.7-8.7h0Z"/>
    <path class="st0" d="M22.8,115.8c-7.1-7.6-12.7-16.4-16.6-26C2.1,79.6,0,68.9,0,57.9c0-11,2.1-21.7,6.2-31.9C10.1,16.4,15.6,7.6,22.8,0l8.7,8.7c-6,6.4-10.7,13.8-13.9,22-3.5,8.7-5.3,17.8-5.2,27.2,0,9.4,1.8,18.5,5.2,27.2,3.3,8.1,8,15.5,13.9,22,0,0-8.7,8.7-8.7,8.7Z"/>
    <path class="st0" d="M108.6,78.6c4.6-5.9,7-13.2,7-20.8,0-7.5-2.4-14.8-7-20.7l8.1-8.1c6.7,8.1,10.3,18.3,10.3,28.8,0,10.5-3.6,20.7-10.3,28.8l-8.1-8.1h0Z"/>
    <path class="st0" d="M42.8,86.7c-6.7-8.1-10.3-18.3-10.3-28.8,0-10.5,3.6-20.7,10.3-28.8l8.1,8.1c-4.5,5.9-7,13.2-7,20.8,0,7.5,2.5,14.8,7,20.7l-8.1,8.1h0Z"/>
    <g>
      <path class="st0" d="M199.5,39.2h10.4l.7,10.8-1.7-.3c1.5-3.8,3.9-6.7,7.3-8.9,3.4-2.2,7.4-3.2,11.9-3.2s10.8,1.9,14.2,5.7c3.4,3.8,5.1,9.1,5.1,15.9v31.6h-11.2v-30.1c0-4.4-1-7.7-2.9-9.9-2-2.3-4.8-3.4-8.5-3.4s-5.3.7-7.4,2c-2.1,1.4-3.8,3.3-4.9,5.8-1.2,2.5-1.8,5.5-1.8,8.9v26.6h-11.2v-51.6h0Z"/>
      <path class="st0" d="M258.3,65.1c0-5.3,1.1-10.1,3.3-14.2,2.2-4.1,5.3-7.4,9.2-9.8,3.9-2.4,8.3-3.5,13.4-3.5s9.6,1.2,13.4,3.6c3.8,2.4,6.8,5.8,8.9,10.1,2.1,4.3,3.2,9.3,3.2,15v2.1h-45.8v-7.9h37.2l-2.3,2.4c0-3.2-.6-6.1-1.7-8.4s-2.8-4.2-4.9-5.4c-2.1-1.3-4.6-1.9-7.6-1.9s-5.7.7-8,2c-2.3,1.3-4,3.2-5.3,5.5s-1.8,5.1-1.8,8.3v3.2c0,3.4.7,6.4,2,8.9,1.4,2.5,3.4,4.4,5.9,5.8,2.6,1.3,5.7,2,9.2,2s5.8-.5,8.5-1.6c2.7-1,5.2-2.6,7.5-4.7l5.5,7c-2.7,2.8-5.9,5-9.8,6.4s-8,2.2-12.5,2.2-10.3-1.1-14.4-3.4c-4.1-2.3-7.4-5.4-9.7-9.6s-3.5-8.9-3.5-14.4h0Z"/>
      <path class="st0" d="M314.4,39.2h35.2v9.1h-35.2v-9.1ZM323.5,73.8V22.2h11.2v51.4c0,3.3.6,5.6,1.8,7.1,1.2,1.5,3,2.2,5.5,2.2s2.8-.3,4-.8,2.5-1.3,3.8-2.4l4.8,7.1c-2,1.9-4.2,3.3-6.5,4.2s-4.9,1.3-7.8,1.3c-5.5,0-9.7-1.6-12.5-4.7-2.9-3.1-4.3-7.8-4.3-13.8h0Z"/>
      <path class="st0" d="M360,67.6l32.6-46.7h11.3v69.9h-10.7v-19.7c.1,0,.1-40.2.1-40.2h2.7l-28.8,41v-4.8c-.1,0,31.4,0,31.4,0l2.1-.2h11.5v9.7h-52.4v-9h0Z"/>
      <path class="st0" d="M453.6,76.7c0-1.9-.8-3.4-2.5-4.6s-4.6-2.1-8.7-2.9l-3.7-.7c-5.3-1.1-9.3-2.9-11.9-5.5-2.6-2.5-3.9-5.7-3.9-9.5s1.9-8.8,5.8-11.7c3.9-2.9,9-4.4,15.5-4.4s14,2.2,19.1,6.5l-5.2,7.5c-2.1-1.7-4.3-3-6.7-3.8s-5-1.3-7.7-1.3-5.7.5-7.4,1.6c-1.7,1.1-2.5,2.6-2.5,4.6s.8,3.3,2.3,4.3,4.2,1.9,7.9,2.6l3.8.8c5.9,1.1,10.2,2.9,12.9,5.5,2.7,2.6,4,5.8,4,9.8s-.9,6.6-2.7,9.1-4.4,4.4-7.7,5.7c-3.3,1.3-7.2,1.9-11.8,1.9s-8.8-.7-12.6-2-7-3.2-9.5-5.8l6-7.4c2.2,2,4.7,3.5,7.4,4.6s5.7,1.6,8.9,1.6,6.2-.6,8.1-1.7,2.8-2.8,2.8-4.9h0Z"/>
      <path class="st0" d="M473,75.8c0-5.6,2-9.9,6.1-13.1s10-4.8,17.6-4.8,5,.2,7.9.5c2.9.3,5.8.8,8.6,1.5v7.7c-2.3-.6-4.9-1.1-7.8-1.4-2.9-.4-5.4-.6-7.5-.6-4.6,0-8.1.8-10.5,2.4-2.4,1.6-3.6,4-3.6,7.2s.9,4.8,2.6,6.3,4.2,2.2,7.3,2.2,5.1-.5,7.2-1.6c2.1-1.1,3.8-2.5,5-4.2s1.8-3.6,1.8-5.7v-15.3c0-3.5-1-6-3.1-7.7-2.1-1.7-5.2-2.5-9.5-2.5s-5.6.4-8.1,1.1c-2.5.7-4.8,2-6.9,3.7l-4.9-7.5c5.8-4.3,12.7-6.4,20.8-6.4s12.7,1.7,16.6,5,5.9,8,5.9,14v34.2h-9.9l-.7-10.5,1.7,1.2c-1.4,3.4-3.8,6.1-7.1,8s-7.2,2.9-11.7,2.9-9.7-1.5-13-4.4-5-7-5-12.1h0Z"/>
      <path class="st0" d="M527.1,39.2h35.2v9.1h-35.2v-9.1ZM536.2,73.8V22.2h11.2v51.4c0,3.3.6,5.6,1.8,7.1,1.2,1.5,3,2.2,5.5,2.2s2.8-.3,4-.8,2.5-1.3,3.8-2.4l4.8,7.1c-2,1.9-4.2,3.3-6.5,4.2s-4.9,1.3-7.8,1.3c-5.5,0-9.7-1.6-12.5-4.7-2.9-3.1-4.3-7.8-4.3-13.8h0Z"/>
      <path class="st0" d="M605,76.7c0-1.9-.8-3.4-2.5-4.6s-4.6-2.1-8.7-2.9l-3.7-.7c-5.3-1.1-9.3-2.9-11.9-5.5-2.6-2.5-3.9-5.7-3.9-9.5s1.9-8.8,5.8-11.7c3.9-2.9,9-4.4,15.5-4.4s14,2.2,19.1,6.5l-5.2,7.5c-2.1-1.7-4.3-3-6.7-3.8s-5-1.3-7.7-1.3-5.7.5-7.4,1.6c-1.7,1.1-2.5,2.6-2.5,4.6s.8,3.3,2.3,4.3,4.2,1.9,7.9,2.6l3.8.8c5.9,1.1,10.2,2.9,12.9,5.5s4,5.8,4,9.8-.9,6.6-2.7,9.1-4.4,4.4-7.7,5.7c-3.3,1.3-7.2,1.9-11.8,1.9s-8.8-.7-12.6-2-7-3.2-9.5-5.8l6-7.4c2.2,2,4.7,3.5,7.4,4.6s5.7,1.6,8.9,1.6,6.2-.6,8.1-1.7,2.8-2.8,2.8-4.9h0Z"/>
    </g>
    <polygon class="st0" points="81 51.2 93.1 16.8 70.4 50.4 70.4 50.4 59.7 64.9 77.8 64.9 64.3 98.9 88.9 65.7 88.9 65.7 99.6 51.2 81 51.2"/>
  </g>
</svg>